<svg xmlns="http://www.w3.org/2000/svg" fill="none" viewBox="0 0 200 200" height="200" width="200">
<g filter="url(#filter0_b_5165_480)">
<rect fill-opacity="0.1" fill="#F2F2F2" height="200" width="200"></rect>
<rect stroke="#7A7872" height="199" width="199" y="0.5" x="0.5"></rect>
<g clip-path="url(#clip0_5165_480)">
<path stroke="#7A7872" d="M100 189.51L190.51 98.9999M100.51 189.51L10.0001 98.9999"></path>
<rect fill="#BEA5F6" transform="rotate(-45 93.0708 160.844)" height="10" width="10" y="160.844" x="93.0708"></rect>
<rect stroke="#BEA5F6" transform="rotate(-45 86.7071 160.844)" height="19" width="19" y="160.844" x="86.7071"></rect>
<rect fill="#BEA5F6" transform="rotate(45 100 84.7021)" height="20" width="20" y="84.7021" x="100"></rect>
<path stroke="#BEA5F6" d="M175 95L100 25.7021L25 95"></path>
<path stroke="#BEA5F6" d="M150 95L100 44.7021L50 95"></path>
<path stroke="#BEA5F6" d="M125 90L100 64.7021L75 90"></path>
<path stroke="#BEA5F6" d="M100 147.702L100 111.702"></path>
</g>
<rect stroke="#7A7872" rx="19.5" height="179" width="179" y="10.5" x="10.5"></rect>
</g>
<defs>
<filter color-interpolation-filters="sRGB" filterUnits="userSpaceOnUse" height="220" width="220" y="-10" x="-10" id="filter0_b_5165_480">
<feFlood result="BackgroundImageFix" flood-opacity="0"></feFlood>
<feGaussianBlur stdDeviation="5" in="BackgroundImageFix"></feGaussianBlur>
<feComposite result="effect1_backgroundBlur_5165_480" operator="in" in2="SourceAlpha"></feComposite>
<feBlend result="shape" in2="effect1_backgroundBlur_5165_480" in="SourceGraphic" mode="normal"></feBlend>
</filter>
<clipPath id="clip0_5165_480">
<rect fill="white" rx="20" height="180" width="180" y="10" x="10"></rect>
</clipPath>
</defs>
</svg>
