<?xml version="1.0" encoding="UTF-8"?>
<!-- Generator: Adobe Illustrator 28.1.0, SVG Export Plug-In . SVG Version: 6.00 Build 0)  -->
<svg xmlns="http://www.w3.org/2000/svg" xmlns:xlink="http://www.w3.org/1999/xlink" version="1.1" id="Layer_1" x="0px" y="0px" viewBox="0 0 1422.9 323.4" style="enable-background:new 0 0 1422.9 323.4;" xml:space="preserve">
<style type="text/css">
	.st0{fill:#FFFFFF;}
</style>
<g>
	<g>
		<g>
			<path class="st0" d="M283.4,286.5c-27.5,19.9-59.8,31-93.9,31.9h-5.3c-49.6,0-92.6-12.8-124.5-37.2     C22.1,252.4,2.2,210.7,2.2,159.8c0-97.9,69.5-158.6,182-158.6c35.9,0,70.4,11.1,99.2,31.9l-39.9,55.4c-17.3-12.4-37.7-19-59.4-19     c-68.2,0-86.4,56.7-86.4,90.4c0,49.6,38.5,90.4,86.4,90.4c3.5,0,7.1-0.4,10.6-0.4l7.1-1.3v-50.1l-26.5,0.8l-36.2-69h157.9v19h0.4     v127.1L283.4,286.5z"></path>
		</g>
		<g>
			<path class="st0" d="M623.3,160.2c0,88.9-74.1,161.1-164.7,161.1c-91.1,0-165.2-72.3-165.2-161.1c0-88.9,74.1-160.7,165.2-160.7     C549.2-0.5,623.3,71.3,623.3,160.2z M534.9,160.2c0-50.3-34.1-91.6-76.3-91.6c-42.6,0-76.7,41.3-76.7,91.6     c0,50.7,34.1,91.6,76.7,91.6C500.7,251.7,534.9,210.9,534.9,160.2z"></path>
			<path class="st0" d="M1026.7,199.2h-76.2v117.6h-96.9V3.5h200.2l42.5,71l-145.8-1.8v57.4h103.1L1026.7,199.2z"></path>
			<path class="st0" d="M792.4,199.2h-76.2v117.6h-96.9V3.5h200.2l42.5,71l-145.8-1.8v57.4h103.1L792.4,199.2z"></path>
		</g>
	</g>
	<g>
		<polygon class="st0" points="1093.6,197.9 1073.2,197.9 1073.2,314.9 1134.4,314.9 1142.2,294.4 1093.6,294.4   "></polygon>
		<path class="st0" d="M1204.3,197.7l-45.1,117.1h21.8l7.4-19v0.7h54l6.9,18.4h21.8L1227,197.9h-22.7V197.7z M1196,276.1l19.6-50.9    l19.1,50.9H1196z"></path>
		<polygon class="st0" points="1398.7,197.7 1368.5,276.1 1348.1,221.7 1333.4,221.7 1312.5,276.1 1282.9,197.7 1261,197.7     1305.3,314.9 1319.5,314.9 1340.6,259.7 1361.4,314.9 1375.5,314.9 1420.6,197.7   "></polygon>
	</g>
</g>
</svg>
