<?xml version="1.0" encoding="UTF-8"?><svg width="628" height="300" viewBox="0 0 628 300" fill="none" xmlns="http://www.w3.org/2000/svg">
<path d="M579.61 256.597V226.555H530.108V257.121C530.129 257.252 530.151 257.404 530.151 257.535C530.282 259.39 531.264 261.549 532.289 262.924H516.69C517.301 262.117 517.89 261.048 518.283 259.913L518.414 259.477C518.697 258.539 518.85 257.557 518.85 256.597V162.414C518.85 162.218 518.85 162 518.806 161.782C518.806 161.716 518.807 161.629 518.785 161.542C518.545 159.774 517.628 157.855 516.668 156.611H532.224C531.286 157.876 530.369 159.818 530.108 161.563C530.108 161.629 530.108 161.716 530.086 161.782C530.064 162 530.042 162.218 530.042 162.414V215.713H579.544V162.414C579.544 162.196 579.544 162 579.501 161.782C579.501 161.716 579.501 161.651 579.479 161.563C579.239 159.818 578.323 157.876 577.363 156.611H592.918C591.98 157.876 591.063 159.796 590.802 161.542C590.802 161.629 590.802 161.694 590.78 161.782C590.758 162 590.736 162.218 590.736 162.414V256.619C590.736 257.601 590.889 258.561 591.173 259.499L591.304 259.935C591.696 261.07 592.285 262.139 592.896 262.946H577.297C578.323 261.571 579.304 259.433 579.435 257.557C579.435 257.404 579.457 257.273 579.457 257.142V256.619L579.61 256.597Z" fill="#002D2D"/>
<path d="M512.176 156.611V170.072C510.888 169.112 509.012 168.217 507.158 167.956C507.092 167.956 507.027 167.956 506.961 167.934C506.787 167.934 506.612 167.89 506.438 167.89C506.438 167.89 506.416 167.89 506.394 167.89C506.22 167.89 506.045 167.89 505.871 167.89H487.239V257.339C487.304 259.259 488.33 261.506 489.399 262.924H473.844C474.913 261.506 475.938 259.237 476.003 257.339V256.532V167.868H457.372C457.197 167.868 457.023 167.868 456.848 167.868C456.848 167.868 456.827 167.868 456.805 167.868C456.63 167.868 456.456 167.89 456.281 167.912C456.216 167.912 456.15 167.912 456.085 167.934C454.23 168.196 452.354 169.09 451.067 170.05V156.611H512.154H512.176Z" fill="#002D2D"/>
<path d="M261.303 156C231.654 156 207.525 180.129 207.525 209.778C207.525 239.427 231.654 263.557 261.303 263.557C290.952 263.557 315.081 239.427 315.081 209.778C315.081 180.129 290.974 156 261.303 156ZM261.303 252.081C237.981 252.081 219.001 233.1 219.001 209.778C219.001 186.456 237.981 167.476 261.303 167.476C284.625 167.476 303.606 186.456 303.606 209.778C303.606 233.1 284.625 252.081 261.303 252.081Z" fill="#002D2D"/>
<path d="M449.103 156.611C447.772 157.855 446.288 159.731 445.481 161.476C445.35 161.738 445.241 162.022 445.154 162.261C445.154 162.305 445.11 162.371 445.088 162.414C444.957 162.785 444.826 163.156 444.717 163.549C444.717 163.549 444.565 164.05 444.281 164.989C444.085 165.599 443.845 166.428 443.539 167.41L417.054 254.699C416.967 254.939 416.901 255.179 416.836 255.419C415.876 258.997 416.988 261.549 417.839 262.924H399.688C400.539 261.549 401.673 258.997 400.713 255.419C400.648 255.179 400.582 254.961 400.495 254.721L377.456 178.755L354.418 254.721L354.287 255.179C353.218 258.888 354.352 261.506 355.225 262.924H337.074C337.924 261.549 339.059 258.997 338.099 255.419C338.034 255.179 337.968 254.961 337.881 254.721L310.239 163.549C310.064 163.003 309.89 162.48 309.672 161.956C309.672 161.956 309.672 161.912 309.65 161.912C308.799 160.08 307.185 157.876 305.832 156.633H322.74C321.824 158.051 320.515 160.123 321.453 163.549C321.496 163.68 321.518 163.789 321.562 163.92L323.089 168.981L328.958 188.354L332.23 199.175L333.801 204.39L337.095 215.211L346.106 244.903V244.838L346.149 244.903L355.138 215.211L358.41 204.39L360.003 199.175L370.126 165.774C370.693 163.832 371.042 162.654 371.086 162.458C371.566 159.949 370.911 158.509 369.995 156.655H381.972L391.594 188.354L394.866 199.175L396.459 204.39L399.731 215.211L408.742 244.903V244.838L408.785 244.903L417.774 215.211L421.046 204.39L422.639 199.175L432.762 165.774C433.329 163.832 433.678 162.654 433.722 162.458C434.202 159.949 433.547 158.509 432.631 156.655H449.081L449.103 156.611Z" fill="#002D2D"/>
<path d="M187.999 262.924C188.217 261.702 188.501 260.088 187.192 257.644C186.996 257.273 186.756 256.859 186.472 256.444C186.363 256.292 186.254 256.117 186.123 255.964L164.328 226.992L155.95 215.931H166.815C180.276 215.931 191.643 204.913 191.424 191.452C191.206 178.384 180.494 167.803 167.36 167.803H155.929V256.597C155.929 256.728 155.929 256.903 155.929 257.121C155.929 257.252 155.929 257.383 155.929 257.513C156.059 259.39 157.041 261.55 158.067 262.924H142.511C143.1 262.139 143.689 261.07 144.104 259.957C144.213 259.695 144.3 259.433 144.366 259.171C144.584 258.495 144.649 258.059 144.671 257.535V257.448C144.671 257.208 144.671 256.924 144.671 256.619V162.436C144.671 162.24 144.671 162.022 144.627 161.803C144.627 161.738 144.627 161.651 144.606 161.563C144.518 160.822 144.366 160.102 144.104 159.382L143.122 156.633H155.863H166.597C185.163 156.633 201.046 170.726 202.442 189.249C203.707 205.917 192.908 221.058 177.309 225.683L205.278 262.924H187.912H187.999Z" fill="#002D2D"/>
<path d="M126.303 226.97H125.038C125.038 226.774 125.016 226.577 124.994 226.381L126.303 226.97Z" fill="#002D2D"/>
<path d="M125.038 226.97C125.103 227.755 125.081 228.628 124.994 229.501V226.381L126.303 226.97H125.038Z" fill="#002D2D"/>
<path d="M137.124 215.822V240.518C136.295 239.885 135.161 239.274 133.961 238.882C133.852 239.056 133.743 239.231 133.524 239.558L133.023 240.234C123.314 254.306 107.082 263.535 88.7564 263.535C59.1075 263.535 35 239.405 35 209.778C35 180.151 59.1075 156 88.7564 156C104.879 156 119.365 163.134 129.226 174.413C129.314 174.501 129.379 174.588 129.445 174.675C129.51 174.741 129.576 174.828 129.663 174.937C129.663 174.937 129.706 174.981 129.706 175.002C130.165 175.526 130.579 176.05 131.015 176.573H130.994C131.932 177.708 133.415 179.257 135.052 180.304L125.496 185.496L121.765 187.525C121.831 186.02 121.612 183.86 120.325 181.656C112.58 172.952 101.301 167.476 88.7564 167.476C65.4343 167.476 46.4538 186.456 46.4538 209.778C46.4538 233.1 65.4343 252.081 88.7564 252.081C103.33 252.081 116.18 244.685 123.794 233.428C123.881 233.253 123.969 233.079 123.969 233.079V233.035C124.514 231.944 124.841 230.701 124.972 229.479C125.081 228.606 125.081 227.755 125.016 226.948H126.281L124.972 226.359V226.948H109.461C107.541 226.97 105.206 228.017 103.766 229.086V215.778H109.461L124.972 215.8L137.124 215.778V215.822Z" fill="#002D2D"/>
<path d="M126.303 226.97H124.994V226.381L126.303 226.97Z" fill="#002D2D"/>
<path d="M278.54 171.114C280.253 171.879 281.904 172.756 283.487 173.732L283.159 174.363C273.178 193.323 280.444 216.786 299.403 226.768L299.927 227.035C299.176 228.71 298.32 230.326 297.367 231.877L296.796 231.565C277.836 221.584 254.372 228.85 244.391 247.81L244.069 248.397C242.365 247.636 240.721 246.765 239.145 245.794L239.471 245.172C249.452 226.212 242.185 202.749 223.226 192.768L222.678 192.486C223.425 190.818 224.276 189.207 225.225 187.662L225.817 187.985C244.777 197.966 268.241 190.7 278.223 171.741L278.207 171.726L278.54 171.114Z" fill="#002D2D"/>
<path d="M428.308 130.226L428.024 129.288C426.497 130.706 425.297 131.775 422.723 132.015C422.614 132.015 391.46 132.037 391.46 132.037L432.322 36H375.097L379.046 49.0028L379.417 50.2027C380.944 48.7846 382.144 47.7156 384.718 47.4756C384.958 47.4538 414.52 47.4538 414.52 47.4538L373.635 143.535H432.344L428.308 130.226Z" fill="#002D2D"/>
<path d="M276.551 143.535C275.177 142.248 273.475 139.935 272.646 138.059C272.646 138.059 272.646 138.015 272.624 138.015C272.515 137.731 242.604 39.2725 241.622 36.0873V36H227.049C227.987 37.8762 228.663 39.338 228.161 41.8687C227.769 43.8758 198.818 138.342 198.687 138.626C197.858 140.371 196.353 142.291 195 143.535H212.126C211.21 142.095 209.879 140 210.817 136.553C210.861 136.422 212.562 128.743 218.126 120.082C225.391 108.759 235.645 100.883 248.604 96.6287C248.604 96.6287 260.668 136.444 260.712 136.575C261.65 140.044 260.341 142.138 259.403 143.557H276.551V143.535ZM221.333 101.865L235.754 54.2606L245.877 87.662C235.426 91.0655 227.398 96.3015 221.311 101.865H221.333Z" fill="#002D2D"/>
<path d="M294.157 137.208V36.0218L282.704 36L273.541 42.6105L274.85 46.7338L282.682 44.3994V137.208C282.66 139.346 281.504 141.964 280.282 143.557H296.492C295.314 141.986 294.179 139.433 294.136 137.317V137.208H294.157Z" fill="#002D2D"/>
<path d="M340.255 63.0528C333.23 63.0528 326.641 64.7981 320.838 67.8743C325.725 60.2602 332.227 54.4351 340.277 50.4863C342.829 49.3082 346.887 48.5228 349.222 49.5482L348.502 47.2356L345.055 36C325.311 42.0432 311.042 55.9405 303.799 76.1428C298.607 90.6073 298.781 103.13 298.781 104.526C298.781 127.434 317.348 146 340.255 146C363.163 146 381.729 127.434 381.729 104.526C381.729 81.6188 363.163 63.0528 340.255 63.0528ZM369.49 110.875C369.402 111.224 369.315 111.595 369.206 111.944C368.639 114.126 367.875 116.198 366.85 118.162C366.784 118.271 366.741 118.38 366.697 118.511C366.413 119.056 366.086 119.558 365.781 120.082C365.606 120.365 365.453 120.649 365.279 120.911C364.995 121.347 364.69 121.762 364.384 122.176C364.144 122.525 363.883 122.852 363.621 123.18C363.337 123.529 363.032 123.878 362.726 124.227C362.399 124.598 362.094 124.947 361.745 125.296C361.439 125.601 361.134 125.885 360.828 126.19C360.457 126.539 360.086 126.889 359.694 127.216C359.367 127.499 359.039 127.761 358.712 128.023C358.319 128.328 357.927 128.634 357.534 128.917C357.163 129.179 356.77 129.441 356.378 129.703C356.007 129.943 355.636 130.161 355.265 130.379C354.807 130.641 354.349 130.903 353.869 131.143C353.541 131.296 353.236 131.448 352.909 131.601C352.342 131.863 351.796 132.103 351.207 132.343C351.12 132.386 351.033 132.43 350.923 132.474C349.702 132.932 348.458 133.303 347.171 133.608C347.171 133.608 346.975 133.652 346.887 133.674C346.32 133.804 345.753 133.914 345.186 134.001C344.771 134.066 344.335 134.132 343.92 134.197C343.462 134.263 342.982 134.306 342.524 134.328C341.979 134.372 341.433 134.394 340.91 134.415C340.691 134.415 340.473 134.459 340.233 134.459C340.037 134.459 339.862 134.437 339.666 134.437C339.099 134.437 338.532 134.394 337.964 134.35C337.55 134.328 337.135 134.284 336.743 134.241C336.241 134.175 335.761 134.088 335.259 134.023C334.801 133.935 334.321 133.87 333.863 133.783C333.514 133.695 333.165 133.608 332.816 133.521C330.568 132.954 328.409 132.125 326.401 131.077C326.358 131.056 326.292 131.034 326.249 131.012C325.703 130.728 325.158 130.401 324.634 130.074C324.372 129.921 324.089 129.768 323.849 129.594C323.413 129.31 322.998 128.983 322.562 128.678C322.234 128.438 321.885 128.198 321.558 127.936C321.187 127.652 320.86 127.347 320.511 127.041C320.162 126.736 319.791 126.409 319.442 126.081C319.136 125.776 318.831 125.47 318.547 125.165C318.198 124.794 317.849 124.423 317.522 124.052C317.238 123.725 316.977 123.398 316.715 123.071C316.409 122.678 316.126 122.285 315.842 121.893C315.58 121.522 315.319 121.129 315.057 120.736C314.817 120.365 314.599 119.994 314.38 119.624C314.119 119.165 313.857 118.685 313.617 118.227C313.464 117.922 313.311 117.595 313.159 117.267C312.897 116.7 312.657 116.155 312.417 115.566C312.373 115.478 312.33 115.369 312.286 115.282C311.828 114.082 311.457 112.86 311.152 111.595C311.152 111.595 311.108 111.399 311.086 111.29C310.955 110.722 310.846 110.155 310.759 109.588C310.693 109.173 310.628 108.737 310.562 108.322C310.497 107.864 310.453 107.384 310.432 106.926C310.388 106.381 310.366 105.835 310.344 105.29C310.344 105.072 310.301 104.832 310.301 104.614C310.301 104.439 310.323 104.265 310.323 104.068C310.323 103.501 310.366 102.912 310.41 102.345C310.432 101.93 310.475 101.516 310.519 101.123C310.584 100.621 310.672 100.119 310.737 99.6394C310.824 99.1813 310.89 98.7013 310.977 98.265C311.042 97.9159 311.152 97.5668 311.239 97.2396C311.806 95.0361 312.591 92.9199 313.617 90.9346C313.66 90.8473 313.704 90.76 313.748 90.6509C314.031 90.1055 314.359 89.5819 314.686 89.0365C314.839 88.7747 314.991 88.4911 315.166 88.2293C315.449 87.7929 315.777 87.3566 316.082 86.9421C316.322 86.6148 316.562 86.2658 316.824 85.9385C317.108 85.5676 317.413 85.2186 317.718 84.8695C318.024 84.5204 318.351 84.1495 318.678 83.8223C318.984 83.5169 319.289 83.2114 319.595 82.906C319.966 82.5569 320.315 82.2297 320.707 81.9024C321.035 81.6188 321.362 81.357 321.711 81.0734C322.082 80.768 322.474 80.4843 322.867 80.2007C323.26 79.9389 323.631 79.6553 324.023 79.4153C324.394 79.1753 324.743 78.9572 325.136 78.739C325.594 78.4772 326.074 78.2154 326.554 77.9536C326.86 77.8009 327.187 77.6482 327.492 77.4954C328.06 77.2336 328.627 76.9718 329.194 76.7537C329.281 76.71 329.369 76.6664 329.478 76.6446C330.699 76.1864 331.943 75.8156 333.23 75.5101C333.23 75.5101 333.426 75.4665 333.514 75.4447C334.081 75.3138 334.648 75.2047 335.237 75.1174C335.652 75.052 336.066 74.9865 336.481 74.9211C336.939 74.8556 337.419 74.812 337.899 74.7902C338.444 74.7465 338.968 74.7247 339.513 74.7029C339.731 74.7029 339.95 74.6593 340.19 74.6593C340.386 74.6593 340.561 74.6811 340.757 74.6811C341.324 74.6811 341.891 74.7247 342.459 74.7683C342.873 74.7902 343.288 74.8338 343.702 74.8774C344.204 74.9429 344.684 75.0301 345.186 75.0956C345.644 75.1829 346.124 75.2483 346.582 75.3356C346.931 75.4229 347.28 75.5101 347.629 75.5974C349.854 76.1646 351.992 76.9718 354 78.019C354.065 78.0627 354.131 78.0845 354.196 78.1063C354.741 78.3899 355.265 78.7172 355.789 79.0444C356.072 79.219 356.334 79.3717 356.618 79.5462C357.054 79.8298 357.468 80.1353 357.883 80.4407C358.232 80.6807 358.559 80.9425 358.908 81.2043C359.257 81.4879 359.607 81.7933 359.956 82.0988C360.326 82.426 360.676 82.7315 361.025 83.0805C361.33 83.3641 361.614 83.6696 361.919 83.975C362.268 84.3459 362.617 84.7168 362.944 85.1095C363.228 85.4367 363.49 85.764 363.752 86.0912C364.057 86.4839 364.363 86.8766 364.646 87.2912C364.908 87.662 365.17 88.0329 365.41 88.4256C365.65 88.7965 365.868 89.1892 366.108 89.5601C366.37 90.0182 366.632 90.4764 366.871 90.9346C367.046 91.2618 367.199 91.5891 367.351 91.9163C367.613 92.4617 367.853 93.029 368.071 93.5962C368.115 93.7053 368.159 93.7925 368.202 93.9016C368.66 95.1016 369.031 96.3233 369.337 97.5887C369.337 97.5887 369.38 97.785 369.402 97.8941C369.533 98.4395 369.62 99.0067 369.729 99.574C369.795 100.01 369.882 100.447 369.926 100.861C369.991 101.319 370.035 101.777 370.057 102.236C370.1 102.781 370.122 103.348 370.144 103.894C370.144 104.112 370.188 104.33 370.188 104.57C370.188 104.745 370.166 104.919 370.166 105.094C370.166 105.683 370.122 106.25 370.079 106.839C370.057 107.232 370.013 107.646 369.969 108.039C369.904 108.541 369.817 109.064 369.729 109.566C369.642 110.024 369.577 110.482 369.49 110.919V110.875Z" fill="#002D2D"/>
</svg>
