<svg xmlns="http://www.w3.org/2000/svg" fill="none" viewBox="0 0 200 200" height="200" width="200">
<g filter="url(#filter0_b_5165_438)">
<rect fill-opacity="0.1" fill="#F2F2F2" height="200" width="200" y="0.000244141"></rect>
<rect stroke="#7A7872" height="199" width="199" y="0.500244" x="0.5"></rect>
<rect stroke="#7A7872" rx="19.5" height="179" width="179" y="10.5002" x="10.5"></rect>
<rect fill="#7A7872" height="10" width="10" y="30.0002" x="30"></rect>
<rect fill="#7A7872" height="10" width="10" y="30.0002" x="73"></rect>
<rect fill="#7A7872" height="10" width="10" y="30.0002" x="116"></rect>
<rect fill="#7A7872" height="10" width="10" y="62.0002" x="30"></rect>
<rect fill="#7A7872" height="10" width="10" y="95.0002" x="160"></rect>
<rect fill="#7A7872" height="10" width="10" y="160" x="73"></rect>
<rect fill="#7A7872" height="10" width="10" y="128" x="73"></rect>
<rect fill="#7A7872" height="10" width="10" y="160" x="116"></rect>
<rect fill="#7A7872" height="10" width="10" y="160" x="159"></rect>
<rect fill="#627FEA" height="10" width="10" y="62.0002" x="73"></rect>
<rect stroke="#627FEA" height="19" width="19" y="57.5002" x="68.5"></rect>
<rect fill="#627FEA" height="10" width="10" y="30.0002" x="160"></rect>
<rect stroke="#627FEA" height="19" width="19" y="25.5002" x="155.5"></rect>
<rect fill="#627FEA" height="10" width="10" y="95.0002" x="116"></rect>
<rect stroke="#627FEA" height="19" width="19" y="90.5002" x="111.5"></rect>
<rect fill="#627FEA" height="10" width="10" y="160" x="30"></rect>
<rect stroke="#627FEA" height="19" width="19" y="155.5" x="25.5"></rect>
<line stroke="#627FEA" y2="76.2615" x2="73.4516" y1="155.455" x1="38.1049"></line>
<line stroke="#627FEA" y2="92.215" x2="111.693" y1="72.912" x1="87.6332"></line>
<line stroke="#627FEA" y2="44.7132" x2="159.163" y1="90.692" x1="126.925"></line>
</g>
<defs>
<filter color-interpolation-filters="sRGB" filterUnits="userSpaceOnUse" height="220" width="220" y="-9.99976" x="-10" id="filter0_b_5165_438">
<feFlood result="BackgroundImageFix" flood-opacity="0"></feFlood>
<feGaussianBlur stdDeviation="5" in="BackgroundImageFix"></feGaussianBlur>
<feComposite result="effect1_backgroundBlur_5165_438" operator="in" in2="SourceAlpha"></feComposite>
<feBlend result="shape" in2="effect1_backgroundBlur_5165_438" in="SourceGraphic" mode="normal"></feBlend>
</filter>
</defs>
</svg>
