<svg role="img" viewBox="0 0 24 24" xmlns="http://www.w3.org/2000/svg"><title>monday.com</title><path fill="#FF3D57" d="M2.727 17.323a2.727 2.727 0 0 1-2.355-4.088l4.091-7.09a2.727 2.727 0 0 1 4.71 2.718l-4.091 7.09a2.726 2.726 0 0 1-2.355 1.37z"/><path fill="#FFCB00" d="M10.909 17.323a2.727 2.727 0 0 1-2.355-4.088l4.091-7.09a2.727 2.727 0 0 1 4.71 2.718l-4.091 7.09a2.726 2.726 0 0 1-2.355 1.37z"/><path fill="#00D647" d="M19.636 17.545a2.727 2.727 0 1 0 0-5.454 2.727 2.727 0 0 0 0 5.454z"/></svg>